With: Dolph Lundgren, Natassia Malthe and Lochlyn Munro

Een oorlogsveteraan (Dolph Lundgren) wordt op een nacht aangevallen in zijn huis door ninjas. Hij komt samen met hen in een vortex terecht die hem terug in de tijd stuurt. Ze belanden in de Middeleeuwen. Hij komt er achter dat hij de zoon van Farmer is en naar de 'toekomst' is gestuurd, waar hij opgegroeid blijkt te zijn een weeshuis. Het Koninkrijk Ehb blijkt vernietigd en iedereen is inmiddels dood. Hij is de enige overlevende van het Koninkrijk Ehb en zou het weer opnieuw aan de macht kunnen krijgen.

An ex-Special Forces soldier gets thrown back to medieval times to fulfill an ancient prophecy and ends up finding redemption for his own battlefield experiences. 

------------------------ Dutch Friends ------------------------
---------------------------------------------------------------
- Bezoek ook eens mijn vrienden op:  http://www.Film-Test.nl --
----- voor mijn Nederlandse Sync. ondertitels ---- en meer ----
------- http://www.Film-Test.nl ---- voor Films en meer -------
---------------------------------------------------------------

General:

Complete name                    : In the Name of the King 2\Two Worlds.avi
Format                           : AVI
Format/Info                      : Audio Video Interleave
File size                        : 1.51 GiB
Duration                         : 1h 32mn
Overall bit rate                 : 2 347 Kbps

Video:

Format                           : MPEG-4 Visual
Format profile                   : Simple@L3
Format settings, BVOP            : No
Format settings, QPel            : No
Format settings, GMC             : No warppoints
Format settings, Matrix          : Default (H.263)
Codec ID                         : XVID
Codec ID/Hint                    : XviD
Duration                         : 1h 32mn
Bit rate                         : 1 952 Kbps
Width                            : 704 pixels
Height                           : 396 pixels
Display aspect ratio             : 16:9
Frame rate                       : 25.000 fps
Color space                      : YUV
Chroma subsampling               : 4:2:0
Bit depth                        : 8 bits
Scan type                        : Progressive
Compression mode                 : Lossy
Bits/(Pixel*Frame)               : 0.280
Stream size                      : 1.25 GiB (83%)
Writing library                  : XviD 1.1.2 (UTC 2006-11-01)

Audio:

Format                           : AC-3
Format/Info                      : Audio Coding 3
Mode extension                   : CM (complete main)
Codec ID                         : 2000
Duration                         : 1h 32mn
Bit rate mode                    : Constant
Bit rate                         : 384 Kbps
Channel(s)                       : 6 channels
Channel positions                : Front: L C R, Side: L R, LFE
Sampling rate                    : 48.0 KHz
Bit depth                        : 16 bits
Compression mode                 : Lossy
Stream size                      : 253 MiB (16%)
Alignment                        : Aligned on interleaves
Interleave, duration             : 32 ms (0.80 video frame)
Interleave, preload duration     : 64 ms

